<?xml version="1.0" encoding="UTF-8" standalone="no"?>
<!DOCTYPE svg PUBLIC "-//W3C//DTD SVG 1.1//EN"
 "http://www.w3.org/Graphics/SVG/1.1/DTD/svg11.dtd">
<!-- Generated by graphviz version 2.43.0 (0)
 -->
<!-- Pages: 1 -->
<svg width="109pt" height="278pt"
 viewBox="0.00 0.00 109.00 278.00" xmlns="http://www.w3.org/2000/svg" xmlns:xlink="http://www.w3.org/1999/xlink">
<g id="graph0" class="graph" transform="scale(1 1) rotate(0) translate(4 274)">
<polygon fill="white" stroke="transparent" points="-4,4 -4,-274 105,-274 105,4 -4,4"/>
<!-- var_S1 -->
<g id="node1" class="node">
<title>var_S1</title>
<text text-anchor="start" x="45.5" y="-259.8" font-family="Times,serif" font-style="italic" font-size="14.00" fill="firebrick">S</text>
</g>
<!-- trm_a1 -->
<g id="node2" class="node">
<title>trm_a1</title>
<text text-anchor="middle" x="4.5" y="-207.8" font-family="monospace" font-size="14.00">a</text>
</g>
<!-- var_S1&#45;&gt;trm_a1 -->
<g id="edge1" class="edge">
<title>var_S1&#45;&gt;trm_a1</title>
<path fill="none" stroke="cornflowerblue" d="M45.22,-255.88C36.16,-246.23 17.79,-226.65 9.16,-217.47"/>
</g>
<!-- var_S2 -->
<g id="node3" class="node">
<title>var_S2</title>
<text text-anchor="start" x="45.5" y="-208.8" font-family="Times,serif" font-style="italic" font-size="14.00" fill="firebrick">S</text>
</g>
<!-- var_S1&#45;&gt;var_S2 -->
<g id="edge2" class="edge">
<title>var_S1&#45;&gt;var_S2</title>
<path fill="none" stroke="cornflowerblue" d="M50.5,-254.69C50.5,-245.33 50.5,-228.59 50.5,-219.26"/>
</g>
<!-- trm_b1 -->
<g id="node4" class="node">
<title>trm_b1</title>
<text text-anchor="middle" x="96.5" y="-207.8" font-family="monospace" font-size="14.00">b</text>
</g>
<!-- var_S1&#45;&gt;trm_b1 -->
<g id="edge3" class="edge">
<title>var_S1&#45;&gt;trm_b1</title>
<path fill="none" stroke="cornflowerblue" d="M55.78,-255.88C64.84,-246.23 83.21,-226.65 91.84,-217.47"/>
</g>
<!-- trm_a2 -->
<g id="node5" class="node">
<title>trm_a2</title>
<text text-anchor="middle" x="4.5" y="-156.8" font-family="monospace" font-size="14.00">a</text>
</g>
<!-- var_S2&#45;&gt;trm_a2 -->
<g id="edge4" class="edge">
<title>var_S2&#45;&gt;trm_a2</title>
<path fill="none" stroke="cornflowerblue" d="M45.22,-204.88C36.16,-195.23 17.79,-175.65 9.16,-166.47"/>
</g>
<!-- var_S3 -->
<g id="node6" class="node">
<title>var_S3</title>
<text text-anchor="start" x="45.5" y="-157.8" font-family="Times,serif" font-style="italic" font-size="14.00" fill="firebrick">S</text>
</g>
<!-- var_S2&#45;&gt;var_S3 -->
<g id="edge5" class="edge">
<title>var_S2&#45;&gt;var_S3</title>
<path fill="none" stroke="cornflowerblue" d="M50.5,-203.69C50.5,-194.33 50.5,-177.59 50.5,-168.26"/>
</g>
<!-- trm_b2 -->
<g id="node7" class="node">
<title>trm_b2</title>
<text text-anchor="middle" x="96.5" y="-156.8" font-family="monospace" font-size="14.00">b</text>
</g>
<!-- var_S2&#45;&gt;trm_b2 -->
<g id="edge6" class="edge">
<title>var_S2&#45;&gt;trm_b2</title>
<path fill="none" stroke="cornflowerblue" d="M55.78,-204.88C64.84,-195.23 83.21,-175.65 91.84,-166.47"/>
</g>
<!-- var_T1 -->
<g id="node8" class="node">
<title>var_T1</title>
<text text-anchor="start" x="45.5" y="-106.8" font-family="Times,serif" font-style="italic" font-size="14.00" fill="firebrick">T</text>
</g>
<!-- var_S3&#45;&gt;var_T1 -->
<g id="edge7" class="edge">
<title>var_S3&#45;&gt;var_T1</title>
<path fill="none" stroke="cornflowerblue" d="M50.5,-152.69C50.5,-143.33 50.5,-126.59 50.5,-117.26"/>
</g>
<!-- trm_c1 -->
<g id="node9" class="node">
<title>trm_c1</title>
<text text-anchor="middle" x="27.5" y="-54.8" font-family="monospace" font-size="14.00">c</text>
</g>
<!-- var_T1&#45;&gt;trm_c1 -->
<g id="edge8" class="edge">
<title>var_T1&#45;&gt;trm_c1</title>
<path fill="none" stroke="cornflowerblue" d="M47.3,-101.69C42.91,-92.33 35.05,-75.59 30.67,-66.26"/>
</g>
<!-- var_T2 -->
<g id="node10" class="node">
<title>var_T2</title>
<text text-anchor="start" x="68.5" y="-55.8" font-family="Times,serif" font-style="italic" font-size="14.00" fill="firebrick">T</text>
</g>
<!-- var_T1&#45;&gt;var_T2 -->
<g id="edge9" class="edge">
<title>var_T1&#45;&gt;var_T2</title>
<path fill="none" stroke="cornflowerblue" d="M53.7,-101.69C58.09,-92.33 65.95,-75.59 70.33,-66.26"/>
</g>
<!-- trm_ε1 -->
<g id="node11" class="node">
<title>trm_ε1</title>
<text text-anchor="start" x="69.5" y="-4.8" font-family="Times,serif" font-style="italic" font-size="14.00" fill="slategray">ε</text>
</g>
<!-- var_T2&#45;&gt;trm_ε1 -->
<g id="edge10" class="edge">
<title>var_T2&#45;&gt;trm_ε1</title>
<path fill="none" stroke="cornflowerblue" d="M73.5,-50.69C73.5,-41.33 73.5,-24.59 73.5,-15.26"/>
</g>
</g>
</svg>
